<?xml version="1.0" encoding="UTF-8" standalone="no"?>
<svg
   version="1.1"
   x="0"
   y="0"
   width="969"
   height="868"
   viewBox="0, 0, 969, 868"
   id="svg233"
   sodipodi:docname="dora1.svg"
   inkscape:version="1.1 (c68e22c387, 2021-05-23)"
   xmlns:inkscape="http://www.inkscape.org/namespaces/inkscape"
   xmlns:sodipodi="http://sodipodi.sourceforge.net/DTD/sodipodi-0.dtd"
   xmlns="http://www.w3.org/2000/svg"
   xmlns:svg="http://www.w3.org/2000/svg">
  <sodipodi:namedview
     id="namedview235"
     pagecolor="#ffffff"
     bordercolor="#666666"
     borderopacity="1.0"
     inkscape:pageshadow="2"
     inkscape:pageopacity="0.0"
     inkscape:pagecheckerboard="0"
     showgrid="false"
     inkscape:zoom="0.90207374"
     inkscape:cx="520.46743"
     inkscape:cy="420.69731"
     inkscape:window-width="1920"
     inkscape:window-height="1001"
     inkscape:window-x="-9"
     inkscape:window-y="-9"
     inkscape:window-maximized="1"
     inkscape:current-layer="svg233" />
  <defs
     id="defs126">
    <clipPath
       id="Clip_1">
      <path
         d="M0.06,0.04 L968.867,0.04 L968.867,868 L0.06,868 z"
         id="path123" />
    </clipPath>
  </defs>
  <g
     clip-path="url(#Clip_1)"
     id="g136"
     transform="translate(1.6130861,8.7438455)">
    <path
       id="path128"
       transform="translate(-1.6130861,-8.7438455)"
       d="M 452.80469,8.7773438 C 420.80317,8.9479684 389.1425,14.317172 358.0625,23.513672 c -18.277,5.409 -35.90466,12.333906 -49.47266,26.628906 -1.273,1.341 -2.8695,1.480891 -4.5625,1.587891 -21.246,1.35 -41.10887,7.569875 -59.92187,17.296875 -29.978,15.499 -54.21405,37.869326 -75.24805,63.861326 -50.981,62.993 -78.36642,134.47667 -77.60742,216.13867 0.287,30.799 4.907,60.99247 11.29102,90.98047 8.067,37.9 20.1062,74.40161 39.1582,108.34961 13.959,24.87 31.23355,47.13258 52.18555,66.51758 1.28,1.184 3.00737,2.17667 1.60937,4.51367 -0.922,1.542 -1.90208,1.31769 -3.33008,1.05469 -20.316,-3.741 -37.42412,3.9557 -50.20312,18.3457 -18.96,21.351 -26.28861,47.73411 -25.72461,76.16211 0.205,10.348 2.39933,20.3508 10.61133,27.5918 2.684,2.366 2.38345,3.78528 0.93945,6.48828 -5.633,10.541 -4.60222,18.98316 3.42578,27.78516 8.059,8.835 18.01374,14.67681 29.67773,17.38281 10.28802,2.387 17.832,-0.50464 23.625,-9.30664 1.803,-2.738 3.1716,-1.93797 5.1836,-0.79297 13.907,7.916 28.41642,14.40855 43.73242,19.18555 24.124,7.523 46.30714,4.99007 67.11914,-10.29493 17.772,-13.054 34.42117,-27.2929 50.20117,-42.6289 1.008,-0.98 1.79361,-2.92136 3.47461,-2.31836 1.325,0.476 0.99097,2.3068 1.16797,3.5918 5.372,38.895 11.74441,77.63237 18.19141,116.35937 0.891,5.349 3.82022,8.42856 8.11718,8.72656 4.49201,0.311 7.53379,-2.43583 9.05079,-8.17382 1.772,-3.63901 0.25006,-7.22386 -0.33594,-10.75586 -7.536,-45.458 -14.81363,-90.95383 -20.64063,-136.67383 -2.521,-17.297 -4.24081,-34.68694 -5.75781,-52.08594 -0.461,-5.285 -1.14912,-10.58202 -1.20312,-15.91602 -0.032,-3.077 1.07442,-4.24448 4.23242,-3.52148 3.567,0.816 7.18359,1.60269 10.80859,1.92969 5.515,0.496 8.26331,3.15436 10.19531,8.44336 5.091,13.942 14.2743,24.63053 27.6543,31.51953 12.858,6.619 26.38455,8.05608 40.68555,6.83008 24.38,-2.091 47.29489,-16.80936 53.71289,-42.69336 0.788,-3.179 2.48783,-4.82391 5.67383,-5.37891 5.906,-1.03 11.7615,-2.34842 17.5625,-3.85742 8.792,-2.287 8.7015,-2.36278 7.4375,6.82422 -2.88,20.944 -5.95897,41.85964 -8.79297,62.80664 -2.512,14.76 -4.44397,29.61281 -6.91797,44.38281 -5.581,33.313 -10.08967,66.82725 -18.88867,99.53125 -0.508,1.89 -1.26525,3.86181 0.0918,5.75781 0.911,4.576 3.40307,7.71457 8.28907,7.85157 5.174,0.146 7.72334,-3.15636 8.90234,-7.81836 0.366,-1.449 0.85947,-2.86646 1.23047,-4.31446 8.944,-34.861 13.98895,-70.44887 19.62695,-105.92187 0.67,-4.215 1.93914,-7.19171 5.86914,-9.47071 3.281,-1.902 4.80813,-2.26881 7.45313,1.11719 7.786,9.964 15.90058,19.69658 24.31054,29.14258 10.08002,11.324 20.58779,22.27705 33.42579,30.62305 6.7,4.356 13.75107,6.84448 22.08007,6.14648 26.684,-2.238 52.59875,-7.80711 77.84375,-16.66211 9.655,-3.386 19.4541,-6.3642 28.8711,-10.9082 1.446,24.656 -4.75853,48.33351 -18.76953,72.35351 -3.747,6.425 -1.44658,10.64946 5.98242,10.93946 19.526,0.763 38.52205,-1.92924 56.74805,-9.11524 3.177,-1.252 5.01984,-1.13993 7.46484,1.66407 7.18,8.233 16.64728,12.19893 27.48828,11.83593 14.07,-0.47 24.94986,-6.95051 31.38086,-19.60351 6.491,-12.773 5.48789,-25.47675 -2.53711,-37.34375 -1.689,-2.499 -1.28681,-3.82524 0.24024,-5.99024 2.96699,-4.204 6.15504,-8.42623 8.12304,-13.11523 2.709,-6.456 6.16111,-10.08381 13.53711,-7.38281 0.734,0.269 1.65238,0.0583 2.48438,0.0273 18.482,-0.674 33.78462,-15.25156 35.01562,-33.35156 1.3,-19.11 -11.45237,-35.48206 -30.23437,-38.53906 -2.642,-0.43 -3.52061,-1.28871 -3.84961,-3.97071 -0.75,-6.1 -1.78136,-12.19383 -3.19336,-18.17383 -0.608,-2.571 -0.26952,-3.66568 2.02343,-5.05468 17.886,-10.832 23.59005,-32.32328 13.37305,-49.73828 -10.22,-17.422 -31.80536,-22.97113 -49.94336,-12.70313 -2.062,1.168 -3.16797,1.19405 -4.96093,-0.50195 -3.861,-3.653 -7.89308,-7.18425 -12.20508,-10.28125 -2.753,-1.977 -3.29619,-3.49866 -2.11719,-6.84766 5.632,-15.997 -0.0737,-32.91484 -14.05469,-42.08984 -11.986,-7.867 -24.58245,-7.79763 -37.43945,-1.89063 -0.426,-1.702 0.66331,-2.68201 1.19531,-3.79101 18.032,-37.591 28.91822,-77.18813 32.19922,-118.70313 1.7053,-21.57728 1.88538,-43.0964 0.8457,-64.53125 -1.32759,-0.91894 -2.54679,-1.96967 -3.59961,-3.2207 -1.47892,-1.75736 1.06672,-4.14562 3.11133,-6.00195 -1.72857,-26.25131 -5.34032,-52.36174 -10.64844,-78.26172 -18.071,-88.171 -63.62423,-159.61314 -135.61523,-213.744144 -50.817,-38.21 -108.16659,-61.198031 -171.30859,-67.957031 -10.73375,-1.149 -21.4383,-1.6701564 -32.10547,-1.6132812 z M 623.36914,621.65234 c 2.967,0.314 2.13989,4.91599 3.96289,7.20899 1.999,2.514 4.0681,4.79523 7.12109,5.99023 -4.35698,5.851 -8.90862,11.56985 -13.01562,17.58985 -4.066,5.961 -1.98722,10.16684 5.30078,10.83984 27.463,2.536 51.76466,12.54394 72.97266,30.21094 2.833,2.36 3.67381,4.28595 2.13281,7.87695 -2.28,5.314 -3.74241,10.9745 -5.69141,16.4375 -1.051,2.949 -3.1405,4.71609 -6.23046,5.87109 -11.48902,4.294 -22.56771,9.65193 -34.59571,12.54493 -6.439,1.549 -11.33698,0.52582 -15.83398,-4.82618 -9.54,-11.351 -18.31061,-23.24389 -26.84961,-35.33789 -1.332,-1.886 -1.31505,-3.11332 0.37695,-4.61132 1.236,-1.096 2.25256,-2.44046 3.35156,-3.68946 4.756,-5.402 4.81724,-8.96081 0.23829,-14.38281 -10.83903,-12.833 -21.68144,-25.66023 -32.52344,-38.49023 9.249,-3.005 18.49619,-6.00754 27.74218,-9.01954 0.94502,-0.308 1.87969,-0.65157 2.80469,-1.01757 2.927,-1.159 5.96733,-3.48732 8.73633,-3.19532 z m -304.18555,12.08985 c -11.253,13.222 -21.88631,25.76086 -32.57031,38.25586 -5.71,6.678 -5.91084,8.04125 -0.96484,15.53125 1.009,1.528 0.56615,2.35059 -0.33985,3.43359 -7.479,8.94 -15.00689,17.83067 -23.33789,26.01367 -1.455,1.429 -2.72457,1.53013 -4.39258,0.82813 -1.98499,-0.836 -3.96797,-1.69035 -6,-2.40235 -2.531,-0.887 -3.21473,-1.73617 -1.42773,-4.45117 6.829,-10.373 9.26627,-21.60369 5.07227,-33.67969 -0.572,-1.644 -0.35929,-2.77018 0.51172,-4.11718 3.97,-6.147 7.94385,-12.29311 11.75585,-18.53711 1.106,-1.812 2.54371,-2.4206 4.47071,-2.5586 15.937,-1.14 29.9622,-7.01242 42.2832,-17.10742 1.174,-0.961 1.21445,-0.91198 4.93945,-1.20898 z m 420.88868,10.42383 c 28.90342,0.0777 58.91093,17.95864 73.08593,44.85351 17.114,32.471 11.67267,73.26345 -13.61132,98.43945 -0.61001,-10.285 -1.31333,-19.88323 -3.11133,-29.36523 -0.27,-1.419 -0.4643,-2.7744 0.8457,-4.10937 8.713,-8.87401 10.20206,-20.14636 8.78906,-31.56836 -2.88,-23.291 -13.35503,-42.60124 -32.70703,-56.49024 -7.749,-5.561 -16.45294,-7.89356 -25.96094,-5.85156 -1.705,0.366 -2.78995,0.11244 -4.00195,-0.97656 -5.146,-4.624 -10.34166,-9.19261 -15.59766,-13.84961 4.03463,-0.74113 8.14048,-1.09314 12.26954,-1.08203 z" />
    <path
       d="m 389.14,859.803 c -5.266,-32.847 -10.672,-65.673 -15.74,-98.55 -2.508,-16.268 -5.076,-32.54 -6.551,-48.951 1.226,-1.454 2.875,-1.484 4.574,-1.372 28.119,1.866 56.223,-0.122 84.312,-0.736 23.577,-0.515 47.144,-2.306 70.702,-3.779 1.758,-0.11 3.684,-0.684 5.205,0.867 -7.076,47.213 -13.429,94.554 -24.757,141.021 -0.704,2.891 -1.483,5.764 -2.227,8.644 -25.921,0.43 -51.853,0.534 -77.757,1.447 -10.96,0.386 -21.916,0.39 -32.869,0.751 -1.636,0.054 -3.261,0.431 -4.892,0.658"
       fill="#fefb82"
       id="path130" />
    <path
       id="path132"
       transform="translate(-1.6130861,-8.7438455)"
       d="m 47.123047,648.29883 c -0.681368,3.29489 -1.392466,6.58696 -2.119141,9.8789 0.08259,-0.0312 0.174895,-0.0674 0.25586,-0.0977 0.593987,-3.07135 1.27432,-6.40661 1.978515,-9.76953 -0.03851,-0.005 -0.07671,-0.007 -0.115234,-0.0117 z" />
  </g>
  <path
     d="m 584.08509,634.88385 c -5.394,-5.709 -5.377,-5.675 1.322,-8.971 52.623,-25.895 88.132,-67.121 108.692,-121.639 2.811,-7.454 5.046,-15.133 7.328,-22.773 0.747,-2.504 1.905,-3.46 4.544,-3.431 27.856,0.311 45.278,-19.071 46.544,-46.724 0.535,-11.682 0.523,-23.322 -4.351,-34.341 -5.972,-13.501 -16.528,-19.91 -31.076,-20.159 -4.199,-0.071 -6.563,-3.235 -5.572,-7.293 0.468,-1.917 1.879,-1.528 3.111,-1.683 6.551,-0.823 9.791,-4.044 9.279,-9.256 -0.534,-5.449 -4.765,-7.937 -11.386,-7.424 -15.922,1.235 -31.508,-1.442 -46.929,-4.943 -40.282,-9.145 -78.297,-24.622 -115.569,-42.05 -26.247,-12.274 -52.272,-24.977 -75.43,-42.74 -35.241,-27.032 -62.99,-60.549 -85.599,-98.547 -7.156,-12.027 -13.548,-24.453 -19.467,-37.125 -1.997,-4.275 -4.67,-7.43 -9.889,-6.528 -4.604,0.796 -6.753,3.777 -6.77,9.981 -0.008,3.23 -2.496,2.759 -4.03,3.329 -27.689,10.292 -53.193,24.353 -76.011,43.234 -31.825,26.334 -55.031,59.004 -71.399,96.703 -14.017,32.283 -22.319,66.074 -26.069,101.019 -0.222,2.071 -0.556,3.411 -3.139,3.352 -20.378,-0.461 -32.025,12.647 -35.338,31.141 -2.649,14.789 -2.495,29.566 3.527,43.659 7.296,17.079 20.839,25.408 39.04,26.259 4.023,0.188 5.753,1.304 6.777,5.241 3.818,14.686 9.3,28.791 16.013,42.399 1.288,2.611 1.393,3.624 -1.981,4.706 -11.028,3.538 -15.267,15.495 -9.221,25.491 1.343,2.222 1.68,4.222 1.19,6.58 -1.324,6.38 -1.814,12.832 -1.65,19.34 0.498,1.827 0.712,3.647 -0.158,5.434 -16.055,-16.888 -28.655,-36.162 -39.282,-56.806 -17.184,-33.383 -27.423,-69.037 -34.638,-105.684 -0.256,-1.3 -0.525,-2.597 -0.788,-3.895 0.335,-4.268 -0.111,-8.471 -1.044,-12.632 -1.333,-16.482 -0.068,-32.891 1.264,-49.313 1.835,-22.624 5.622,-44.909 11.088,-66.923 7.942,-31.986 19.558,-62.501 35.072,-91.652 18.46,-34.688 44.533,-62.874 73.383,-88.878 16.671,-15.027004 34.758,-27.949004 55.138,-37.520004 4.077,-1.915 8.155,-3.783 12.665,-4.43 1.332,-0.609 2.796,-0.826 4.159,-1.353 3.663,-0.029 7.332,0.046 10.99,-0.112 4.758,-0.206 8.069,-3.126 7.913,-7.84 -0.117,-3.562 1.749,-5.001 4.214,-6.542 14.891,-9.306 31.414,-14.461 48.292,-18.397 29.452,-6.867 59.357,-10.147 89.613,-9.209 29.693,0.921 58.258,7.844 86.208,17.468 45.353,15.616 85.535,39.876 120.552,72.672004 1.689,1.582 3.365,3.178 5.048,4.767 2.664,22.909 -2.84,43.186 -19.404,59.844 -4.511,4.536 -9.941,7.847 -15.642,10.621 -3.241,1.576 -3.285,3.196 -1.119,5.654 1.871,2.123 3.877,4.127 5.62,6.366 1.698,2.182 3.963,1.902 6.375,1.606 22.855,-2.804 43.106,-12.147 62.201,-24.5 2.425,-1.569 4.504,-4.146 7.933,-3.593 12.834,18.167 22.702,37.921 31.122,58.432 12.974,31.605 20.037,64.621 24.241,98.448 4.054,32.622 6.246,65.314 4.556,98.107 -2.854,55.37 -18.666,106.853 -48.284,153.94 -1.86,2.958 -4.054,3.862 -7.306,3.963 -6.156,0.189 -11.317,0.484 -16.379,-5.399 -10.338,-12.017 -27.551,-14.245 -41.624,-7.212 -14.052,7.022 -21.686,21.766 -19.472,37.65 0.234,1.678 0.489,3.154 -1.25,4.414 -6.346,4.596 -11.538,10.495 -17.38,15.666 -4.951,0.329 -6.83,-3.455 -8.761,-6.848 -2.894,-5.085 -2.709,-5.031 -8.306,-2.847 -10.808,4.217 -21.672,8.296 -33.301,9.726"
     fill="#dba76f"
     id="path138" />
  <path
     d="m 679.43809,494.80985 c -9.389,27.807 -24.057,52.48 -44.11,73.904 -30.986,33.106 -69.766,52.16 -113.499,61.536 -59.575,12.772 -118.877,11.608 -177.653,-5.31 -4.021,-1.157 -6.954,-1.987 -4.865,-7.369 1.085,-2.793 1.011,-6.469 -0.714,-9.239 -2.206,-3.539 -1.296,-6.657 -0.271,-10.25 12.241,-42.898 -14.376,-87.261 -59.885,-95.42 -1.235,-3.375 1.699,-4.7 3.38,-6.464 7.846,-8.233 13.75,-17.421 15.762,-28.875 0.8,-4.557 0.565,-8.972 -0.468,-13.347 -3.399,-14.395 -9.359,-27.454 -21.385,-36.74 -17.831,-13.769 -42.848,-12.254 -59.505,3.16 -7.205,6.669 -12.586,14.522 -16.448,23.512 -0.845,1.967 -0.959,4.8 -4.131,4.908 -13.458,-84.913 5.192,-162.004 58.063,-229.871 26.721,-34.299 62.508,-56.825 103.335,-71.446 3.105,-1.112 4.217,-0.268 5.611,2.442 18.233,35.443 40.857,67.789 68.929,96.162 24.438,24.699 52.465,44.42 83.587,59.909 44.097,21.946 88.988,41.813 136.831,54.267 12.079,3.145 24.277,5.812 36.742,6.752 4.392,0.332 6.241,1.796 6.547,6.352 1.127,16.807 1.184,33.586 -0.439,50.351 -0.783,8.088 -1.31,16.225 -3.381,24.139 -2.735,-0.143 -2.669,-2.59 -3.321,-4.27 -3.289,-8.473 -7.916,-16.027 -14.048,-22.802 -13.202,-14.587 -37.961,-16.514 -53.372,-7.173 -18.496,11.212 -28.801,27.914 -29.611,49.204 -0.645,16.986 8.373,30.009 23.08,38.221 10.938,6.108 23.093,8.493 35.71,7.285 8.577,-0.82 16.028,-4.22 22.103,-10.459 1.622,-1.664 3.113,-3.534 5.194,-4.64 1.453,-0.772 3.233,-1.417 2.232,1.571"
     fill="#fef8ea"
     id="path140" />
  <path
     d="m 740.15709,856.53285 c 8.902,-17.236 14.348,-34.978 15.885,-53.699 1.52,-18.519 -0.161,-36.818 -6.244,-54.639 2.156,-0.65 3.129,1.055 4.405,1.855 8.406,5.267 17.087,9.805 27.346,9.689 3.553,-0.041 3.47,2.363 3.782,4.608 1.605,11.555 2.543,23.154 1.911,34.829 -0.178,3.304 -0.134,6.45 3.459,8.043 3.312,1.469 5.715,-0.383 8.09,-2.352 25.433,-21.084 37.579,-48.306 36.37,-81.139 -1.745,-47.383 -40.583,-87.039 -88.196,-91.116 -11.789,-1.01 -23.209,0.206 -34.565,3.097 -2.862,0.729 -5.453,1.752 -6.041,5.119 -0.609,3.482 1.235,5.562 3.986,7.326 7.723,4.954 14.893,10.636 21.679,16.812 1.421,1.293 2.704,2.265 1.019,4.421 -7.601,9.726 -8.68,20.919 -6.832,33.958 -23.91,-28.366 -53.324,-45.273 -89.035,-50.988 21.447,-33.142 77.332,-64.112 139.436,-45.262 60.439,18.344 98.949,81.227 87.538,144.197 -12.21,67.379 -70.743,105.477 -123.993,105.241"
     fill="#ff7164"
     id="path142" />
  <path
     d="m 679.43809,494.80985 c -0.481,-2.361 -1.417,-0.994 -2.215,-0.247 -2.914,2.724 -5.564,5.8 -8.753,8.147 -10.827,7.974 -23.102,8.391 -35.725,6.095 -15.903,-2.892 -29.084,-10.012 -37.39,-24.536 -5.991,-10.475 -7.041,-21.546 -3.986,-33.09 4.402,-16.636 13.469,-29.931 28.573,-38.557 21.695,-12.39 49.949,-6.171 63.826,18.648 3.013,5.387 4.677,11.288 7.703,16.602 -2.171,16.118 -6.199,31.76 -12.033,46.938"
     fill="#ffdbc4"
     id="path144" />
  <path
     d="m 195.64609,448.81585 c 4.001,-6.244 6.23,-13.432 10.713,-19.455 7.804,-10.484 17.516,-18.622 30.313,-21.395 22.55,-4.887 41.107,2.905 53.112,23.693 4.151,7.187 7.294,14.793 8.851,23.144 2.491,13.356 -2.364,24.308 -9.489,34.954 -3.151,4.708 -8.372,7.593 -10.704,12.905 -16.41,-2.573 -32.002,0.23 -46.971,7.135 -8.507,-1.298 -15.58,-5.563 -22.21,-10.743 -6.6,-16.187 -10.726,-33.045 -13.615,-50.238"
     fill="#ffdbc4"
     id="path146" />
  <path
     d="m 533.25509,716.02585 c -6.276,0.562 -12.541,1.346 -18.83,1.648 -28.047,1.349 -56.075,2.948 -84.167,3.534 -16.797,0.351 -33.587,0.192 -50.378,0.454 -3.802,0.06 -7.612,-0.4 -11.418,-0.618 -2.864,-17.576 -4.483,-35.299 -5.968,-53.029 -0.579,-6.92 -1.524,-13.857 -0.92,-20.847 7.523,1.295 14.872,2.581 22.231,3.812 1.976,0.33 3.032,1.137 3.71,3.283 9.178,29.047 33.509,45.215 63.964,43.011 14.936,-1.08 28.878,-4.614 40.538,-14.543 9.186,-7.822 14.836,-17.827 17.181,-29.607 0.463,-2.321 1.154,-3.345 3.516,-3.769 9.326,-1.673 18.599,-3.631 27.678,-6.38 3.897,-1.179 3.119,1.302 2.817,3.422 -3.311,23.211 -6.634,46.419 -9.954,69.629"
     fill="#fefefe"
     id="path148" />
  <path
     d="m 598.96509,705.94285 c 8.77,12.181 17.587,23.833 26.731,35.271 9.491,11.873 20.758,14.714 34.941,11.021 13.742,-3.579 26.56,-9.477 39.633,-14.722 6.389,-2.564 9.569,-8.523 12.052,-14.643 1.481,-3.653 2.686,-7.417 4.228,-11.724 9.336,11.596 15.983,23.94 20.69,37.327 1.701,4.84 2.666,9.936 4.289,14.808 1.023,3.07 -0.193,4.377 -2.717,5.782 -11.28,6.277 -23.729,9.421 -35.778,13.627 -21.94,7.657 -44.641,11.607 -67.712,13.745 -4.141,0.384 -7.406,-1.502 -10.603,-3.576 -11.85,-7.688 -21.281,-18.03 -30.72,-28.336 -8.317,-9.082 -16.044,-18.666 -23.702,-28.305 -1.291,-1.624 -2.501,-2.748 0.021,-4.713 9.978,-7.774 19.265,-16.358 28.647,-25.562"
     fill="#fef8ea"
     id="path150" />
  <path
     d="m 259.57709,790.78385 c -14.699,-0.564 -28.329,-5.313 -41.598,-11.182 -6.518,-2.883 -12.668,-6.593 -19.145,-9.578 -3.272,-1.508 -2.959,-2.933 -1.29,-5.505 7.511,-11.574 14.858,-23.255 22.265,-34.897 3.418,-5.373 9.226,-6.828 15.117,-3.759 7.217,3.761 14.457,7.39 22.461,9.342 5.363,1.308 9.666,0.21 13.689,-3.583 8.984,-8.47 17.051,-17.759 24.911,-27.239 1.744,-2.103 2.723,-3.158 5.228,-0.554 11.09,11.524 23.078,22.086 35.769,31.82 2.085,1.599 2.498,2.481 0.403,4.424 -15.74,14.598 -31.474,29.191 -49.558,40.952 -8.604,5.596 -17.461,10.437 -28.252,9.759"
     fill="#fef8ea"
     id="path152" />
  <path
     d="m 304.35209,69.778846 c -19.002,6.361999 -35.957,16.506 -51.51,28.890999 -35.95,28.626005 -67.496,61.152005 -89.543,102.069005 -22.323,41.429 -36.022,85.592 -43.025,131.996 -3.757,24.895 -5.31,49.906 -4.706,75.063 0.231,2.085 1.559,4.347 -0.97,5.984 -11.085,-58.144 -9.366,-115.714 11.02,-171.581 20.191,-55.335 52,-103.165 98.432,-140.295 21.088,-16.863005 44.841,-28.393005 71.827,-32.476005 2.462,-0.373 4.958,-0.517 7.439,-0.768 1.025,-0.258 1.309,0.171 1.036,1.117"
     fill="#fefefe"
     id="path154" />
  <path
     d="m 157.45109,734.81785 c -21.234,-0.864 -24.637,-5.468 -24.62,-25.067 0.019,-19.875 6.552,-38.25 17.338,-54.87 7.22,-11.124 18.59,-16.227 31.184,-18.759 3.91,-0.787 7.536,0.299 10.615,3.098 4.82,4.384 9.442,8.933 12.524,14.752 2.948,5.567 2.116,9.061 -2.838,13.027 -3.015,2.412 -6.521,3.936 -9.986,5.556 -6.695,3.129 -7.636,9.873 -2.13,14.801 1.114,0.997 2.317,1.921 3.299,3.037 3.8,4.325 3.248,8.659 -1.62,11.734 -2.234,1.411 -4.713,2.442 -7.103,3.597 -8.358,4.038 -12.243,10.849 -12.486,19.965 -0.214,7.996 -0.715,8.531 -8.689,9.109 -1.82,0.132 -3.658,0.02 -5.488,0.02"
     fill="#fef8ea"
     id="path156" />
  <path
     d="m 726.22909,176.84385 c -15.13,10.077 -30.761,19.163 -48.217,24.718 -7.791,2.479 -15.768,3.998 -23.839,5.148 -2.147,0.305 -3.783,-0.09 -5.201,-1.965 -2.307,-3.048 -4.735,-6.04 -7.406,-8.767 -2.465,-2.516 -2.299,-3.556 1.093,-5.024 16.317,-7.059 27.353,-19.169 33.024,-36.011 3.26,-9.682 4.694,-19.66 3.921,-29.917 -0.102,-1.362 -0.82,-2.996 0.662,-4.179 16.692,16.277 31.627,34.02 44.561,53.432 0.539,0.808 0.938,1.708 1.402,2.565"
     fill="#fefefe"
     id="path158" />
  <path
     d="m 302.10009,622.89685 c -7.707,6.485 -16.671,9.884 -26.372,11.975 -8.154,1.758 -15.019,-0.011 -22.059,-4.586 -11.005,-7.151 -22.676,-13.281 -34.084,-19.811 -1.611,-0.923 -3.061,-1.895 -4.019,-3.588 -6.06,-10.716 -8.72,-22.195 -8.042,-34.487 0.182,-3.3 1.21,-4.119 4.264,-2.346 29.784,17.292 59.609,34.515 89.415,51.77 0.25,0.145 0.398,0.466 0.897,1.073"
     fill="#9c9c9c"
     id="path160" />
  <path
     d="m 223.53809,537.16985 c 10.123,-11.117 22.456,-17.266 36.874,-18.243 33.049,-2.24 58.499,18.234 63.704,50.87 1.103,6.915 0.42,13.915 -1.109,20.806 -0.655,2.953 -1.668,3.269 -4.278,1.747 -25.567,-14.906 -51.199,-29.698 -76.812,-44.524 -6.003,-3.476 -12.003,-6.959 -18.379,-10.656"
     fill="#9c9c9c"
     id="path162" />
  <path
     d="m 789.56609,723.90885 c -0.06,19.054 -5.667,22.543 -19.5,15.857 -17.221,-8.324 -29.891,-31.373 -27.669,-50.337 1.465,-12.506 10.529,-17.1 20.855,-9.935 16.671,11.567 24.48,28.3 26.314,44.415"
     fill="#fef8ea"
     id="path164" />
  <path
     d="m 351.40509,725.30685 c -10.904,-7.73 -20.323,-16.074 -29.477,-24.705 -6.047,-5.702 -11.734,-11.784 -17.702,-17.571 -1.826,-1.771 -2.492,-2.949 -0.494,-5.242 10.262,-11.783 20.437,-23.647 30.414,-35.672 2.711,-3.268 5.007,-0.746 7.528,-0.393 1.922,0.269 2.769,1.149 2.82,3.28 0.607,25.793 3.71,51.366 6.898,76.931 0.101,0.812 0.013,1.648 0.013,3.372"
     fill="#fefefe"
     id="path166" />
  <path
     d="m 548.96809,726.26085 c 4.259,-30.486 8.419,-60.264 12.562,-89.918 1.776,-0.278 2.143,0.873 2.74,1.57 11.353,13.274 22.677,26.573 34.01,39.865 1.165,1.367 2.448,2.343 0.444,4.418 -14.812,15.34 -30.203,30.018 -47.365,42.745 -0.496,0.368 -1.088,0.608 -2.391,1.32"
     fill="#fefefe"
     id="path168" />
  <path
     d="m 405.30809,653.69085 c 29.008,2.683 57.527,2.226 86.074,-1.019 -1.885,13.79 -16.975,24.958 -34.991,27.299 -27.224,3.539 -44.561,-8.767 -51.083,-26.28"
     fill="#fef8ea"
     id="path170" />
  <path
     d="m 736.32309,422.50685 c -0.209,8.317 -0.833,14.936 -3.181,21.255 -3.932,10.578 -13.196,17.129 -24.375,17.733 -2.631,0.142 -2.269,-0.937 -1.94,-2.582 2.423,-12.087 4.139,-24.277 4.946,-36.575 0.545,-8.3 0.92,-16.618 1.071,-24.933 0.05,-2.773 0.779,-3.723 3.601,-3.786 8.073,-0.181 13.693,3.31 16.668,10.914 0.844,2.159 1.603,4.412 1.95,6.691 0.651,4.269 0.973,8.588 1.26,11.283"
     fill="#fef8ea"
     id="path172" />
  <path
     d="m 152.21709,424.17085 c -0.028,-6.864 0.554,-13.621 3.225,-20.039 2.913,-6.998 8.244,-10.513 15.403,-10.5 2.459,0.004 3.512,0.58 3.511,3.329 -0.005,20.652 1.824,41.141 5.942,61.4 0.484,2.385 0.025,3.13 -2.708,2.823 -14.206,-1.592 -23.405,-12.126 -24.993,-29.048 -0.248,-2.643 -0.259,-5.309 -0.38,-7.965"
     fill="#fef8ea"
     id="path174" />
  <path
     d="m 166.20409,778.05885 c -9.678,-2.345 -18.489,-6.327 -24.125,-15.115 -2.654,-4.138 1.701,-6.999 2.928,-10.397 0.974,-2.696 3.258,-1.314 5.153,-1.138 7.983,0.741 15.941,0.831 23.699,-1.632 9.72,-3.086 14.826,-9.397 14.441,-19.563 -0.233,-6.164 1.747,-9.737 7.528,-11.557 1.869,-0.588 3.611,-1.708 5.269,-2.8 1.656,-1.091 2.868,-1.102 4.317,0.42 1.499,1.575 1.116,2.863 0.118,4.415 -3.956,6.151 -7.857,12.337 -11.781,18.508 -7.491,11.782 -14.987,23.56 -22.47,35.347 -1.168,1.842 -2.164,3.888 -5.077,3.512"
     fill="#9c9c9c"
     id="path176" />
  <path
     d="m 899.37609,753.43285 c 0.004,13.542 -11.802,24.969 -25.009,24.348 -3.504,-0.165 -4.644,-1.02 -3.323,-4.827 4.435,-12.779 6.584,-26.054 7.085,-39.541 0.145,-3.894 1.406,-3.968 4.472,-2.93 10.009,3.387 16.772,12.505 16.775,22.95"
     fill="#bebebe"
     id="path178" />
  <path
     d="m 786.19909,574.45985 c 16.276,0.499 27.744,15.993 23.288,30.522 -0.73,2.379 -1.47,2.922 -3.721,1.661 -12.383,-6.936 -25.586,-11.764 -39.492,-14.496 -3.65,-0.717 -2.904,-2.265 -1.751,-4.363 4.818,-8.772 12.229,-13.238 21.676,-13.324"
     fill="#bebebe"
     id="path180" />
  <path
     d="m 869.54409,680.26185 c -2.987,-6.838 -5.877,-13.706 -9.581,-20.181 -3.636,-6.355 -7.55,-12.543 -12.307,-18.096 -2.386,-2.784 -1.849,-3.839 1.273,-5.14 11.746,-4.895 25.604,0.405 31.151,12.088 5.486,11.555 1.047,25.048 -10.536,31.329"
     fill="#bebebe"
     id="path182" />
  <path
     d="m 846.52509,837.40785 c -0.598,9.503 -4.804,16.887 -13.449,21.131 -8.792,4.315 -17.356,3.305 -25.385,-2.322 -3.026,-2.121 -4.271,-3.514 0.188,-5.946 11.868,-6.472 22.454,-14.768 31.612,-24.749 2.331,-2.54 3.409,-1.7 4.536,0.795 1.588,3.519 2.636,7.156 2.498,11.091"
     fill="#bebebe"
     id="path184" />
  <path
     d="m 225.79209,660.93285 c -1.683,0.682 -2.493,0.214 -2.644,-1.932 -0.678,-9.599 -5.519,-17.205 -11.783,-24.117 -1.731,-1.91 -3.742,-3.643 -1.607,-6.827 1.491,-2.223 2.456,-2.405 4.673,-1.096 11.295,6.67 22.633,13.271 34.089,19.658 2.693,1.503 2.717,2.779 1.064,4.882 -0.715,0.911 -1.423,1.878 -1.882,2.93 -2.549,5.832 -6.043,9.029 -12.897,5.917 -2.741,-1.244 -5.89,0.227 -9.013,0.585"
     fill="#9c9c9c"
     id="path186" />
  <path
     d="m 240.51909,688.65385 c -0.205,6.107 -2.531,11.369 -6.625,15.747 -4.019,4.298 -10.146,4.702 -15.01,1.352 -4.695,-3.233 -6.303,-8.647 -3.932,-14.075 1.965,-4.5 5.087,-8.169 9.038,-11.082 3.234,-2.383 6.586,-5.032 10.876,-2.875 4.389,2.207 5.399,6.435 5.653,10.933"
     fill="#fef8ea"
     id="path188" />
  <path
     d="m 705.71409,592.94985 c -14.373,3.792 -27.849,9.172 -40.398,16.832 -2.068,-6.478 4.389,-18.22 13.029,-22.104 9.452,-4.25 20.423,-2.483 27.369,5.272"
     fill="#bebebe"
     id="path190" />
  <path
     d="m 209.26109,499.05385 c 0.255,-0.192 0.682,-0.595 0.74,-0.548 6.392,5.226 14.186,7.774 21.47,11.291 -4.393,2.963 -9.176,5.338 -13.551,9.36 -3.578,-6.687 -6.45,-13.243 -8.659,-20.103"
     fill="#fef6e8"
     id="path192" />
  <path
     d="m 114.59809,413.78185 c 1.603,-1.787 0.338,-4.039 0.97,-5.984 1.24,4.3 1.473,8.612 0.142,12.941 -0.371,-2.319 -0.741,-4.638 -1.112,-6.957"
     fill="#e3d0ba"
     id="path194" />
  <path
     d="m 322.29709,614.72885 c -1.378,-0.749 -2.757,-1.498 -5.171,-2.81 3.105,-0.06 4.476,0.852 5.171,2.81"
     fill="#856f53"
     id="path196" />
  <path
     d="m 240.50009,567.05485 c 2.28,0.134 3.438,0.895 4.78,2.383 -2.036,0.027 -3.25,-0.683 -4.78,-2.383"
     fill="#86745c"
     id="path198" />
  <path
     d="m 190.41809,587.12485 c 0.052,-1.811 0.104,-3.622 0.157,-5.434 1.321,1.727 0.748,3.754 0.888,5.667 0.009,0.132 -0.085,0.343 -0.193,0.4 -0.699,0.374 -0.724,-0.207 -0.852,-0.633"
     fill="#bb8b50"
     id="path200" />
  <path
     d="m 270.83309,584.05685 c -1.661,0.485 -2.682,-0.537 -4.105,-1.399 2.199,-1.235 2.804,1.013 4.105,1.399"
     fill="#86745c"
     id="path202" />
  <path
     d="m 290.61009,595.82885 c -2.508,-0.562 -3.806,-1.116 -4.875,-2.682 2.002,-0.121 3.187,0.812 4.875,2.682"
     fill="#86745c"
     id="path204" />
  <path
     d="m 226.42709,558.87785 c -1.796,-0.243 -3.307,-1.012 -4.929,-2.872 2.442,0.318 3.99,1.035 5.025,2.761 l -0.096,0.111"
     fill="#86745c"
     id="path206" />
  <path
     d="m 226.52309,558.76685 c 1.461,0.147 2.758,0.594 3.903,2.339 -2.036,-0.06 -3.209,-0.762 -3.999,-2.229 0,10e-4 0.096,-0.11 0.096,-0.11"
     fill="#847055"
     id="path208" />
  <path
     d="m 304.35209,69.778846 c -0.346,-0.372 -0.691,-0.744 -1.036,-1.117001 1.219,-1.22 2.709,-0.652999 4.118,-0.623999 -1.027,0.581 -2.055,1.161 -3.082,1.741"
     fill="#c8b39c"
     id="path210" />
  <path
     d="m 709.35309,332.95285 c -4.381,-0.542 -9.266,-2.228 -14.164,-3.792 -34.981,-11.168 -66.299,-29.262 -95.533,-51.119 -43.726,-32.692 -81.176,-71.382 -111.043,-117.239 -2.254,-3.46 -3.462,-6.977 -1.505,-10.749 1.564,-3.017 4.376,-4.416 7.908,-4.191 3.346,0.214 5.392,2.12 7.094,4.811 17.461,27.587 38.401,52.357 61.896,74.912 34.697,33.31 72.725,61.919 117.429,80.729 9.359,3.938 18.901,7.372 28.815,9.7 4.506,1.058 8.173,3.061 8.264,8.477 0.084,5.058 -3.3,8.471 -9.161,8.461"
     fill="#6e4100"
     id="path212" />
  <path
     d="m 482.04809,490.29985 c 7.401,0.313 16.937,-0.159 26.208,2.366 6.407,1.745 7.719,3.499 8.268,10.067 1.419,16.973 -0.673,33.213 -9.939,47.948 -8.668,13.784 -21.918,20.424 -37.309,23.517 -16.869,3.39 -33.618,3.217 -49.205,-4.798 -20.363,-10.472 -32.343,-28.066 -39.428,-49.351 -0.567,-1.704 -0.56,-3.502 -2.498,-4.599 -2.702,-1.529 -3.894,-4.146 -3.41,-7.195 0.555,-3.499 2.987,-5.384 6.273,-6.365 7.509,-2.244 15.208,-3.656 22.935,-4.748 25.226,-3.562 50.555,-6.106 78.105,-6.842"
     fill="#6e4100"
     id="path214" />
  <path
     d="m 293.48009,387.92085 c 0.677,-10.345 4.882,-19.65 13.583,-26.555 2.324,-1.844 2.82,-2.938 0.836,-5.416 -4.305,-5.375 -5.754,-11.887 -6.253,-18.601 -0.347,-4.675 1.83,-7.631 5.566,-7.991 3.819,-0.368 6.184,1.965 6.777,6.806 0.445,3.625 0.557,7.329 2.557,10.559 2.598,4.195 5.241,7.113 11.36,6.47 15.252,-1.605 29.429,9.537 32.455,24.42 1.002,4.932 -1.173,9.045 -5.472,10.348 -4.707,1.426 -8.615,-0.65 -10.594,-5.628 -3.982,-10.018 -9.029,-13.673 -17.141,-12.413 -8.919,1.386 -16.274,9.329 -16.719,18.518 -0.225,4.632 -0.963,8.761 -5.986,10.296 -6.39,1.953 -11.221,-2.622 -10.969,-10.813"
     fill="#6e4100"
     id="path216" />
  <path
     d="m 597.58309,388.65185 c 0.034,7.004 -2.407,10.197 -7.91,10.346 -5.526,0.15 -8.353,-2.904 -8.765,-9.743 -0.55,-9.145 -5.234,-15.231 -13.654,-18.418 -8.153,-3.086 -15.33,0.042 -18.924,8.021 -0.613,1.359 -0.998,2.82 -1.601,4.185 -1.977,4.48 -6.112,6.348 -10.637,4.862 -4.04,-1.327 -6.41,-5.555 -5.228,-10.025 1.96,-7.414 5.582,-13.96 11.845,-18.558 2.529,-1.856 2.504,-2.997 0.861,-5.415 -3.457,-5.091 -4.432,-11.06 -4.881,-17.069 -0.299,-3.992 1.327,-7.024 5.604,-7.412 4.283,-0.39 6.388,2.212 6.756,6.293 0.285,3.15 0.329,6.386 1.702,9.271 2.197,4.619 4.903,7.904 11.063,8.19 18.621,0.866 33.677,17.086 33.769,35.472"
     fill="#6e4100"
     id="path218" />
  <path
     d="m 324.90809,212.95985 c 8.981,0.384 16.543,3.896 20.731,12.93 1.671,3.603 1.492,6.962 -2.362,8.944 -3.81,1.959 -6.903,0.491 -8.554,-3.25 -2.364,-5.354 -6.789,-6.623 -11.854,-6.113 -5.672,0.57 -11.392,1.787 -13.803,7.952 -1.494,3.818 -3.722,6.006 -7.838,4.778 -4.455,-1.329 -4.901,-4.757 -3.892,-8.772 1.214,-4.83 4.411,-8.094 8.32,-10.755 5.635,-3.838 11.947,-5.601 19.252,-5.714"
     fill="#6e4100"
     id="path220" />
  <path
     d="m 441.25509,384.32785 c 2.44,0.019 4.673,0.728 6.131,2.723 2.142,2.929 4.336,5.876 6.004,9.079 1.996,3.831 0.58,8.206 -2.859,10.477 -3.568,2.357 -8.418,1.724 -11.146,-1.751 -2.036,-2.594 -3.972,-5.337 -5.491,-8.253 -3.077,-5.912 0.883,-12.336 7.361,-12.275"
     fill="#6e4100"
     id="path222" />
  <path
     d="m 271.80509,560.06285 c 0.016,-3.327 -7.76,-7.96 -10.839,-6.403 -4.299,2.175 -6.113,1.2 -5.831,-3.63 0.113,-1.932 -0.909,-2.256 -1.969,-2.899 -2.274,-1.379 -4.64,-2.612 -6.864,-4.065 -1.547,-1.01 -2.15,-2.526 -1.276,-4.335 0.987,-2.043 2.711,-2.391 4.621,-1.658 1.384,0.53 2.651,1.379 3.949,2.124 6.047,3.47 5.932,3.417 9.043,-2.616 1.076,-2.088 1.067,-3.31 -1.144,-4.319 -2.371,-1.081 -4.041,-2.846 -2.717,-5.502 1.407,-2.823 3.842,-2.143 5.966,-0.769 1.918,1.24 3.199,1.115 4.479,-0.931 1.113,-1.778 2.935,-2.197 4.79,-1.058 1.673,1.029 2.058,2.787 1.213,4.376 -2.209,4.153 1.686,4.495 3.618,5.43 2.276,1.102 4.753,5.443 7.663,0.481 0.794,-1.353 2.374,-1.769 3.983,-0.971 1.759,0.872 2.693,2.524 1.794,4.098 -2.093,3.669 0.468,4.702 2.902,5.806 2.858,1.296 5.672,5.413 8.813,0.065 0.669,-1.14 2.808,-0.888 4.15,0.06 1.212,0.856 1.755,2.329 1.123,3.541 -1.387,2.66 -0.754,4.186 1.863,5.519 1.701,0.867 2.793,2.479 1.579,4.574 -1.236,2.134 -3.248,2.591 -5.13,1.388 -5.646,-3.61 -5.284,2.371 -6.946,4.465 -2.657,3.348 1.457,3.44 2.924,4.642 1.269,1.039 2.863,1.675 4.285,2.537 2.036,1.233 2.666,3.053 1.507,5.103 -1.25,2.21 -3.2,2.017 -5.177,0.915 -1.307,-0.728 -2.599,-1.486 -3.919,-2.191 -2.081,-1.112 -3.724,-2.697 -6.526,-0.439 -2.468,1.989 -5.096,-0.043 -5.163,-3.4 -0.081,-4.031 -7.804,-8.503 -11.161,-6.389 -1.378,0.868 -2.624,1.456 -4.104,0.397 -1.347,-0.964 -1.943,-2.23 -1.499,-3.946"
     fill="#fefefe"
     id="path224" />
  <path
     d="m 451.10909,561.60885 c -21.751,0.422 -37.016,-10.133 -48.135,-27.836 -3.191,-5.08 -5.851,-10.369 -7.883,-16.041 -1.17,-3.265 -0.457,-4.346 2.867,-4.894 17.073,-2.814 34.235,-4.817 51.482,-6.152 16.074,-1.244 32.121,-2.736 48.292,-1.213 3.989,0.376 4.861,1.722 4.791,5.429 -0.123,6.53 -0.819,12.93 -2.53,19.213 -5.225,19.185 -19.033,27.887 -37.636,30.634 -3.778,0.558 -7.557,1.25 -11.248,0.86"
     fill="#fefefe"
     id="path226" />
  <path
     d="m 280.42909,543.99185 c 0.126,1.358 -4,7.525 -5.021,7.504 -1.105,-0.023 -9.392,-5.359 -9.476,-6.102 -0.122,-1.08 4.271,-7.493 5.153,-7.522 1.126,-0.036 9.267,5.296 9.344,6.12"
     fill="#9e9e9e"
     id="path228" />
  <path
     d="m 297.29409,554.16285 c -1.632,2.103 -1.872,5.516 -4.848,6.833 -1.167,0.516 -9.912,-5.574 -9.457,-6.244 1.673,-2.459 1.706,-6.339 5.296,-7.115 1.712,-0.37 9.048,5.181 9.009,6.526"
     fill="#9e9e9e"
     id="path230" />
</svg>
